HIERARCHY
ROOT Hips
{
	OFFSET -0.001795 -0.223333 0.028219
	CHANNELS 6 Xposition Yposition Zposition Zrotation Yrotation Xrotation 
	JOINT LeftUpLeg
	{
		OFFSET 0.069520 -0.091406 -0.006815
		CHANNELS 3 Zrotation Yrotation Xrotation
		JOINT LeftLeg
		{
			OFFSET 0.034277 -0.375199 -0.004496
			CHANNELS 3 Zrotation Yrotation Xrotation
			JOINT LeftFoot
			{
				OFFSET -0.013596 -0.397961 -0.043693
				CHANNELS 3 Zrotation Yrotation Xrotation
				JOINT LeftToe
				{
					OFFSET 0.026358 -0.055791 0.119288
					CHANNELS 3 Zrotation Yrotation Xrotation
					End Site
					{
						OFFSET 0.000000 0.000000 0.000000
					}
				}
			}
		}
	}
	JOINT RightUpLeg
	{
		OFFSET -0.067670 -0.090522 -0.004320
		CHANNELS 3 Zrotation Yrotation Xrotation
		JOINT RightLeg
		{
			OFFSET -0.038290 -0.382569 -0.008850
			CHANNELS 3 Zrotation Yrotation Xrotation
			JOINT RightFoot
			{
				OFFSET 0.015774 -0.398415 -0.042312
				CHANNELS 3 Zrotation Yrotation Xrotation
				JOINT RightToe
				{
					OFFSET -0.025372 -0.048144 0.123348
					CHANNELS 3 Zrotation Yrotation Xrotation
					End Site
					{
						OFFSET 0.000000 0.000000 0.000000
					}
				}
			}
		}
	}
	JOINT Spine
	{
		OFFSET -0.002533 0.108963 -0.026696
		CHANNELS 3 Zrotation Yrotation Xrotation
		JOINT Spine1
		{
			OFFSET 0.005487 0.135180 0.001092
			CHANNELS 3 Zrotation Yrotation Xrotation
			JOINT Spine2
			{
				OFFSET 0.001457 0.052922 0.025425
				CHANNELS 3 Zrotation Yrotation Xrotation
				JOINT Neck
				{
					OFFSET -0.002778 0.213870 -0.042857
					CHANNELS 3 Zrotation Yrotation Xrotation
					JOINT Head
					{
						OFFSET 0.005152 0.064970 0.051349
						CHANNELS 3 Zrotation Yrotation Xrotation
						End Site
						{
							OFFSET 0.000000 0.000000 0.000000
						}
					}
				}
				JOINT LeftShoulder
				{
					OFFSET 0.078845 0.121749 -0.034090
					CHANNELS 3 Zrotation Yrotation Xrotation
					JOINT LeftArm
					{
						OFFSET 0.090977 0.030469 -0.008868
						CHANNELS 3 Zrotation Yrotation Xrotation
						JOINT LeftForeArm
						{
							OFFSET 0.259612 -0.012772 -0.027456
							CHANNELS 3 Zrotation Yrotation Xrotation
							JOINT LeftHand
							{
								OFFSET 0.249234 0.008986 -0.001171
								CHANNELS 3 Zrotation Yrotation Xrotation
								End Site
								{
									OFFSET 0.000000 0.000000 0.000000
								}
							}
						}
					}
				}
				JOINT RightShoulder
				{
					OFFSET -0.081759 0.118833 -0.038615
					CHANNELS 3 Zrotation Yrotation Xrotation
					JOINT RightArm
					{
						OFFSET -0.096012 0.032551 -0.009143
						CHANNELS 3 Zrotation Yrotation Xrotation
						JOINT RightForeArm
						{
							OFFSET -0.253742 -0.013329 -0.021401
							CHANNELS 3 Zrotation Yrotation Xrotation
							JOINT RightHand
							{
								OFFSET -0.255298 0.007772 -0.005559
								CHANNELS 3 Zrotation Yrotation Xrotation
								End Site
								{
									OFFSET 0.000000 0.000000 0.000000
								}
							}
						}
					}
				}
			}
		}
	}
}
MOTION
Frames: 10
Frame Time: 0.050000
0.000000 0.808687 0.000000 -2.807737 11.444755 24.108463 20.626324 0.872642 -58.995063 -22.746607 9.033220 43.222610 13.844083 31.246163 -3.811855 0.000000 0.000000 0.000000 -6.471629 -1.652448 -70.174078 12.385626 -8.561116 58.995202 -5.929828 -14.187817 -4.745618 0.000000 0.000000 0.000000 -8.113102 -1.593993 59.462892 9.991883 -0.266879 -34.240311 5.770838 4.602956 32.281708 -3.213908 4.406323 -25.836492 0.000000 0.000000 0.000000 -24.278215 5.299412 -7.976823 -42.734049 6.634157 -8.448916 -68.053499 -58.702927 42.987106 0.000000 0.000000 0.000000 15.584251 -9.084693 -4.072326 48.866907 -4.866884 -8.845283 68.728976 63.672362 54.065259 0.000000 0.000000 0.000000 
-0.000223 0.800942 0.001733 -4.294815 10.308504 26.024708 24.564705 3.234311 -59.998050 -26.566755 11.108189 41.375738 14.385377 32.868773 -5.070507 0.000000 0.000000 0.000000 -4.233905 0.330435 -73.405903 11.630735 -7.665832 60.128628 -6.685342 -16.322067 -5.048472 0.000000 0.000000 0.000000 -8.972095 -0.599608 58.919410 10.852692 -0.278145 -35.217932 6.191026 4.606437 34.617191 -4.504555 5.077815 -30.271637 0.000000 0.000000 0.000000 -24.303731 8.396075 -10.122797 -41.766270 9.142355 -9.004604 -83.292746 -55.968422 51.676708 0.000000 0.000000 0.000000 15.317747 -9.328627 -4.138448 48.303568 -4.722298 -8.883912 73.991371 67.245112 62.229256 0.000000 0.000000 0.000000 
-0.000240 0.795123 0.003476 -3.064219 10.105035 25.490429 23.911160 2.842086 -58.711474 -27.922969 11.487797 40.431274 14.292312 33.476350 -7.953975 0.000000 0.000000 0.000000 -5.778471 -0.674510 -72.402806 13.209177 -8.914161 60.241892 -7.333549 -17.978179 -7.599536 0.000000 0.000000 0.000000 -8.823534 -0.694780 60.721446 10.864304 -0.412060 -33.821118 4.979178 4.980950 34.081043 -1.670131 3.588172 -25.897103 0.000000 0.000000 0.000000 -24.396950 9.456300 -10.836193 -42.234863 11.251965 -9.757783 -81.993768 -57.151374 51.686512 0.000000 0.000000 0.000000 18.420181 -9.907901 -4.664874 44.723114 -3.912719 -8.203552 84.063559 67.515117 71.124071 0.000000 0.000000 0.000000 
-0.000112 0.793533 0.005111 -3.509208 10.370781 26.091343 25.199306 3.484927 -60.078879 -29.134214 12.519620 41.664323 14.167508 32.950467 -6.976795 0.000000 0.000000 0.000000 -5.079646 -0.353804 -74.248608 13.030775 -8.894063 61.416819 -7.876485 -19.529021 -5.384661 0.000000 0.000000 0.000000 -8.933932 -0.815626 62.190250 10.961717 -0.330349 -34.511226 5.092374 3.926809 34.477842 -4.371473 4.858012 -28.139261 0.000000 0.000000 0.000000 -26.361036 10.352777 -11.643216 -40.055170 13.630945 -9.846692 -87.614031 -57.175960 56.385882 0.000000 0.000000 0.000000 17.489538 -9.567007 -4.714588 43.186139 -4.913583 -8.188859 87.422987 67.970741 73.801380 0.000000 0.000000 0.000000 
0.000068 0.791337 0.006361 -3.397621 10.267560 27.185520 25.202470 3.617980 -61.277430 -29.676492 12.989031 42.025800 14.694874 34.387494 -7.411078 0.000000 0.000000 0.000000 -4.888350 -0.196320 -74.981817 12.725612 -8.587828 61.415965 -7.908798 -19.687535 -6.926012 0.000000 0.000000 0.000000 -9.010298 -0.758094 62.813238 10.781343 -0.314802 -34.341218 4.939111 4.314925 34.619205 -4.413445 4.897033 -28.082462 0.000000 0.000000 0.000000 -26.427645 11.648898 -12.794403 -39.889833 13.878797 -9.779800 -86.685840 -56.754535 54.988711 0.000000 0.000000 0.000000 18.273964 -11.286052 -5.782730 42.518104 -3.624616 -7.741724 86.775965 65.956848 71.404862 0.000000 0.000000 0.000000 
0.000239 0.788773 0.006868 -3.325317 10.603836 27.770468 26.159035 4.047130 -62.312246 -31.736626 14.197656 42.203754 15.158371 35.249527 -6.783149 0.000000 0.000000 0.000000 -4.668748 -0.259557 -76.189536 12.391870 -8.499477 62.699320 -8.011013 -19.955417 -6.941747 0.000000 0.000000 0.000000 -8.954510 -1.042936 64.584558 10.550455 -0.139179 -35.597918 5.389882 4.133625 35.195193 -5.337630 5.358160 -26.840865 0.000000 0.000000 0.000000 -27.846261 12.135949 -13.579259 -38.277973 14.674049 -9.491900 -86.489699 -56.723805 54.740083 0.000000 0.000000 0.000000 18.024366 -12.051182 -6.314791 42.403380 -4.239336 -7.902236 87.044531 64.420008 69.883940 0.000000 0.000000 0.000000 
0.000694 0.785782 0.006630 -2.930162 10.583805 28.464631 25.872669 4.003035 -63.578262 -32.334093 14.764301 42.830212 15.867439 36.750808 -6.508840 0.000000 0.000000 0.000000 -4.573945 -0.268660 -77.418389 11.743691 -8.087205 64.002792 -7.998280 -19.922684 -7.423150 0.000000 0.000000 0.000000 -8.984811 -1.091514 65.600745 10.463441 -0.152417 -35.277843 5.212413 3.982979 34.814902 -5.425912 5.336612 -26.293651 0.000000 0.000000 0.000000 -27.772408 13.180594 -14.254800 -38.516092 15.400870 -9.696832 -85.160465 -56.020775 52.956141 0.000000 0.000000 0.000000 17.995104 -12.828017 -6.914480 43.102487 -5.255792 -8.195955 82.878219 62.509372 63.822750 0.000000 0.000000 0.000000 
0.001438 0.781390 0.006018 -2.544541 10.760274 29.112827 25.667211 3.931977 -65.035396 -32.688401 15.301210 43.786127 16.155514 37.464298 -6.610487 0.000000 0.000000 0.000000 -4.631955 -0.506881 -78.754395 11.691063 -8.206944 65.559573 -8.263881 -20.682361 -8.070061 0.000000 0.000000 0.000000 -8.996729 -1.238614 66.683530 10.243050 -0.077015 -35.600631 5.497982 3.964750 34.947918 -5.846668 5.524948 -26.842486 0.000000 0.000000 0.000000 -27.849595 13.201751 -14.333575 -38.624216 16.061736 -9.874320 -83.623766 -55.931781 51.574975 0.000000 0.000000 0.000000 17.706465 -13.652907 -7.431892 44.117110 -6.808153 -8.774247 82.054530 60.897579 61.405547 0.000000 0.000000 0.000000 
0.002398 0.775330 0.005575 -2.378208 11.019415 29.237727 25.739220 3.922206 -65.924135 -33.165177 15.755940 44.375562 16.519638 38.457474 -6.965939 0.000000 0.000000 0.000000 -4.910188 -0.955420 -79.914768 12.002889 -8.672540 67.167040 -8.440448 -21.137925 -8.075511 0.000000 0.000000 0.000000 -9.092283 -1.401336 68.113360 10.142694 -0.066423 -35.603590 5.795020 4.366396 34.740376 -5.515085 5.372235 -27.218716 0.000000 0.000000 0.000000 -27.388576 13.291648 -14.389686 -39.249573 16.048774 -10.014643 -80.913307 -56.043215 49.519166 0.000000 0.000000 0.000000 17.050903 -13.949356 -7.475531 45.803997 -8.160762 -9.400098 77.648385 59.849335 56.732818 0.000000 0.000000 0.000000 
0.003522 0.769917 0.005556 -2.583570 10.735446 29.501659 25.783436 4.207569 -66.927869 -33.355760 16.148180 44.843886 17.907725 40.941046 -5.999647 0.000000 0.000000 0.000000 -4.674174 -0.615798 -80.983093 12.021486 -8.678262 68.130764 -8.740138 -22.029375 -8.173051 0.000000 0.000000 0.000000 -9.323009 -1.128838 68.957664 10.018304 -0.031550 -35.708613 6.096588 4.774937 34.789686 -5.069209 5.160062 -27.751954 0.000000 0.000000 0.000000 -26.500768 13.518486 -14.379668 -40.414240 15.794328 -10.296099 -77.780173 -55.685604 46.796797 0.000000 0.000000 0.000000 16.916128 -14.166303 -7.531164 46.548734 -8.673688 -9.666869 75.195616 59.755973 54.733064 0.000000 0.000000 0.000000 
